<?xml version="1.0" encoding="UTF-8" standalone="no"?>
<!-- Created with Inkscape (http://www.inkscape.org/) -->

<svg
   width="84.666664mm"
   height="84.666656mm"
   viewBox="0 0 320 319.99997"
   version="1.1"
   id="svg1"
   inkscape:version="1.3 (0e150ed6c4, 2023-07-21)"
   sodipodi:docname="utilajo-logo.svg"
   xmlns:inkscape="http://www.inkscape.org/namespaces/inkscape"
   xmlns:sodipodi="http://sodipodi.sourceforge.net/DTD/sodipodi-0.dtd"
   xmlns:xlink="http://www.w3.org/1999/xlink"
   xmlns="http://www.w3.org/2000/svg"
   xmlns:svg="http://www.w3.org/2000/svg">
  <sodipodi:namedview
     id="namedview1"
     pagecolor="#505050"
     bordercolor="#eeeeee"
     borderopacity="1"
     inkscape:showpageshadow="0"
     inkscape:pageopacity="0"
     inkscape:pagecheckerboard="0"
     inkscape:deskcolor="#505050"
     inkscape:document-units="mm"
     showguides="false"
     inkscape:zoom="0.125"
     inkscape:cx="-2548"
     inkscape:cy="-480"
     inkscape:window-width="1920"
     inkscape:window-height="1011"
     inkscape:window-x="0"
     inkscape:window-y="32"
     inkscape:window-maximized="1"
     inkscape:current-layer="layer1" />
  <defs
     id="defs1">
    <linearGradient
       id="linearGradient3"
       inkscape:collect="always">
      <stop
         style="stop-color:#5cdd4d;stop-opacity:1;"
         offset="0"
         id="stop3" />
      <stop
         style="stop-color:#008000;stop-opacity:1"
         offset="1"
         id="stop4" />
    </linearGradient>
    <linearGradient
       inkscape:collect="always"
       xlink:href="#linearGradient3"
       id="linearGradient4"
       x1="209.30106"
       y1="206.2084"
       x2="444.02908"
       y2="391.98245"
       gradientUnits="userSpaceOnUse" />
  </defs>
  <g
     inkscape:label="Layer 1"
     inkscape:groupmode="layer"
     id="layer1"
     transform="translate(1759.9679,814.11711)">
    <g
       id="g2"
       transform="translate(-1887.0459,-914.74818)"
       inkscape:export-filename="utilajo-logo.svg"
       inkscape:export-xdpi="96"
       inkscape:export-ydpi="96">
      <rect
         style="fill:none;fill-opacity:1;stroke-width:1.3602"
         id="rect1"
         width="320"
         height="320"
         x="127.07801"
         y="100.63108" />
      <path
         id="path1"
         style="fill:url(#linearGradient4);fill-opacity:1;stroke-width:2.8731"
         d="m 334.7947,126.9917 c -1.30319,-0.3889 -1.4956,1.86958 -0.23132,7.305 5.68267,24.43246 10.2085,55.30909 13.18386,88.06263 -15.02668,3.60162 -31.84963,7.94395 -51.25448,13.41244 -179.46952,50.57625 -196.840779,43.01716 -13.8318,141.32048 l 33.05278,17.22086 -25.07879,-40.05539 -75.45521,-48.21218 c 57.68733,-20.32353 101.94791,-37.43345 134.90463,-51.45606 1.73667,31.69965 -10.25357,85.32944 -12.31484,114.46818 13.09728,-2.56211 33.64565,-34.58608 44.36348,-42.1423 10.54229,-7.43248 20.39646,-2.88686 25.76683,-4.34912 0,0 -12.93668,-59.19491 -21.41656,-84.38305 49.42181,-24.22067 44.22861,-32.60552 -8.02369,-22.60084 -18.14226,-48.19585 -38.764,-87.12819 -43.66468,-88.59065 z"
         sodipodi:nodetypes="cscsccccccscccsc" />
    </g>
  </g>
</svg>
